<?xml version="1.0" standalone="no"?>
<!DOCTYPE svg PUBLIC "-//W3C//DTD SVG 20010904//EN"
 "http://www.w3.org/TR/2001/REC-SVG-20010904/DTD/svg10.dtd">
<svg version="1.0" xmlns="http://www.w3.org/2000/svg"
 width="164.000000pt" height="164.000000pt" viewBox="0 0 164.000000 164.000000"
 preserveAspectRatio="xMidYMid meet">
<metadata>
Created by potrace 1.11, written by Peter Selinger 2001-2013
</metadata>
<g transform="translate(0.000000,164.000000) scale(0.100000,-0.100000)"
fill="#000000" stroke="none">
<path d="M80 1514 c-19 -8 -44 -27 -55 -42 -19 -26 -20 -45 -23 -430 -3 -441
-3 -444 56 -487 25 -19 45 -20 299 -23 l272 -3 3 -162 c3 -144 5 -165 23 -189
41 -54 30 -53 463 -56 440 -3 444 -3 487 56 19 26 20 43 20 442 0 399 -1 416
-20 442 -17 23 -59 49 -87 54 -5 1 -122 2 -262 3 l-255 1 -3 163 c-3 180 -10
199 -76 231 -47 23 -788 23 -842 0z"/>
</g>
</svg>
